<svg width="150mm" height="150mm" version="1.1" viewBox="0 0 150 150" xml:space="preserve" xmlns="http://www.w3.org/2000/svg"><g transform="matrix(1.0748 0 0 1.1098 -39.753 -23.403)"><path transform="matrix(.24617 0 0 .23841 36.986 21.087)" d="m301.07 528.43c-17.541-3.7043-32.665-15.813-44.302-35.47-1.5932-2.6911-3.069-4.8929-3.2797-4.8929-0.21066 0-2.3077 2.641-4.6601 5.8689-8.2257 11.287-18.494 20.698-27.978 25.642-8.4282 4.3938-14.451 6.0109-23.967 6.4344-8.9213 0.39705-15.931-0.63209-25.082-3.6823-11.154-3.718-13.224-4.8737-16.48-9.2016-3.83-5.0906-7.1059-11.491-9.2294-18.031-0.96407-2.9693-1.8872-5.5331-2.0514-5.6973-0.16421-0.16422-2.3247 0.72017-4.8012 1.9653-19.74 9.9253-37.203 8.1883-53.226-5.2944-4.8615-4.0907-6.1256-6.1843-8.9621-14.843-4.6636-14.237-3.7826-27.173 2.7874-40.928 5.9195-12.394 19.679-26.332 37.238-37.721 4.2057-2.7279 6.5627-4.5688 6.0767-4.7459-0.43665-0.15918-4.1499-1.4319-8.2517-2.8282-15.883-5.4071-30.752-12.455-42.407-20.102-8.1322-5.3355-13.184-9.3631-20.638-16.452-3.2278-3.0701-7.1339-6.2232-8.6803-7.0068-5.583-2.8291-8.2203-6.3435-11.356-15.132-2.1229-5.9509-1.7775-12.78 1.2489-24.688 1.132-4.4541 0.77122-6.9114-1.1605-7.905-0.68899-0.35438-3.116-0.70947-5.3933-0.7891l-4.1406-0.14479-0.65022-3.5908c-3.2012-17.678-1.8288-41.509 3.77-65.463 1.3993-5.9868 2.2767-8.3277 5.2743-14.071 20.639-39.547 52.101-68.032 92.738-83.966 14.39-5.6425 26.836-9.063 45.182-12.418 21.726-3.973 34.849-5.2332 58.907-5.6576l18.506-0.32643 0.0317-13.043c0.0268-11.035 0.2264-14.149 1.2962-20.225 3.0825-17.507 8.9667-32.121 18.937-47.031 4.4109-6.5964 3.3375-6.2095 13.522-4.8744 22.844 2.9946 42.653 11.124 59.531 24.433 9.6274 7.5912 20.728 20.156 28.476 32.23l4.1165 6.4153 4.9938 0.33133c9.7879 0.64942 20.361 4.282 28.586 9.8215 1.9124 1.288 5.533 4.3368 8.0458 6.7752l4.5687 4.4334 5.93-1.223c18.685-3.8534 39.109-3.8637 57.002-0.0289 9.1234 1.9553 21.267 6.32 31.234 11.226 9.6936 4.7715 21.823 11.98 23.758 14.119 1.0175 1.1251 1.0975 1.9615 1.0486 10.965-0.0423 7.7732-0.2935 10.848-1.2407 15.183-3.1706 14.511-9.603 27.625-19.69 40.139-5.6177 6.97-11.738 13.578-15.473 16.706l-3.3104 2.7723-4.318-0.33298c-3.9183-0.30216-4.2904-0.24487-4.0199 0.61898 0.68275 2.18 3.0964 13.48 3.9202 18.353 1.3906 8.2264 1.6901 25.396 0.58299 33.422-3.8646 28.016-17.624 50.591-43.406 71.213-2.5826 2.0657-4.7637 3.9342-4.8469 4.1522-0.0832 0.21795 3.4469 1.1931 7.8446 2.167 16.479 3.6493 27.828 7.5377 42.025 14.399 19.806 9.5712 30.753 17.593 36.929 27.059 6.5406 10.026 8.5149 22.345 5.5868 34.861-1.4519 6.2058-7.0244 12.639-14.248 16.448l-2.8555 1.5058-13.534-0.0129c-13.982-0.0133-18.759-0.48674-30.09-2.9824-2.7248-0.60015-5.0237-1.0216-5.1087-0.93659-0.085 0.085 0.47809 2.2474 1.2514 4.8054 9.9892 33.044 5.0987 55.214-14.39 65.236-7.8852 4.0546-15.278 5.9433-27.742 7.0881-5.4573 0.50122-6.7844 0.44098-11.117-0.5046-13.786-3.0089-26.798-9.7428-37.719-19.52l-3.8098-3.411 2.0761-0.62216c8.322-2.4939 15.204-9.475 19.274-19.551 0.73599-1.8221 2.0665-6.089 2.9567-9.482 2.323-8.8541 3.0663-9.774 10.923-13.518 3.6187-1.7244 7.4324-3.9866 8.6248-5.116 2.9293-2.7743 4.7556-6.8026 4.7623-10.504 5e-3 -2.628-0.20271-3.1636-1.8729-4.8337-1.6207-1.6207-2.2457-1.878-4.5575-1.8762-1.8656 1e-3 -3.6858 0.50409-5.9938 1.6552-4.0576 2.0237-6.6254 2.0977-10.186 0.29347l-2.6914-1.3638-1.4805 1.9411c-1.7872 2.3431-1.4811 2.8876 2.6361 4.6889 4.4271 1.9369 9.0965 1.7592 13.553-0.51597 3.9198-2.0013 5.6268-1.9213 5.6268 0.26364 0 3.8423-3.8321 7.824-9.7926 10.175-6.2734 2.4743-9.8936 5.2461-11.886 9.1008-0.6283 1.2153-1.8598 5.0685-2.7367 8.5626-4.6749 18.628-14.9 27.753-28.57 25.495-8.7321-1.4421-16.465-6.5932-25.969-17.299-9.4136-10.604-13.1-19.796-11.63-28.998 1.7925-11.22 10.241-18.479 26.006-22.344 12.897-3.1619 16.128-5.6631 22.035-17.056 3.9311-7.5817 7.0517-10.929 11.596-12.438 2.9345-0.97468 6.706-0.93946 7.0357 0.0657 0.1122 0.34212-1.0437 1.5184-2.5687 2.614-6.838 4.9126-10.402 14.443-8.2709 22.118l0.59758 2.1523 1.9924-1.9924c1.8371-1.8371 1.999-2.2634 2.0768-5.4668 0.11956-4.9251 1.9065-8.1466 7.0944-12.79 3.0566-2.7357 4.2586-4.2044 4.5018-5.5006 0.45906-2.447-0.48895-4.5872-2.628-5.933-1.5424-0.97041-2.5015-1.109-6.5048-0.94025-3.9238 0.16545-5.1913 0.46601-7.7114 1.8285-4.9394 2.6706-8.1795 6.4174-11.752 13.589-4.975 9.9882-7.081 11.617-18.93 14.643-15.489 3.9552-24.646 10.856-28.534 21.504-1.5945 4.3662-1.7263 13.849-0.25999 18.709 1.2155 4.0289 3.6333 8.8938 6.6036 13.287 2.7909 4.1279 12.794 14.466 17.219 17.795 5.9593 4.4836 14.183 7.8929 19.038 7.8929 2.1228 0 2.0896 0.18519-1.3486 7.5255-3.2046 6.8416-6.3089 11.306-11.288 16.233-8.5254 8.4361-16.293 12.078-31.194 14.625-6.7859 1.16-19.152 1.0468-25.201-0.2307zm-49.166-62.702v-17.368l-2.3478-0.28916c-8.4274-1.038-11.84-1.6107-15.285-2.5654-2.1439-0.5941-4.1497-1.0802-4.4574-1.0802-0.36559 0-0.55942 5.9384-0.55942 17.139v17.139l1.5192 0.57984c3.8543 1.4711 13.335 3.2296 20.164 3.74 0.90175 0.0674 0.96675-1.0955 0.96675-17.295zm18.239 15.674c2.8911-0.57037 6.2471-1.3799 7.4578-1.7989l2.2012-0.76188 0.14598-17.208c0.0803-9.4644-0.0497-17.208-0.28888-17.208-0.23917 0-2.8455 0.6115-5.7918 1.3589-4.0392 1.0246-13.96 2.5081-16.773 2.5081-0.11973 0-0.21768 7.8457-0.21768 17.435v17.435l4.0051-0.36152c2.2028-0.19884 6.3706-0.82819 9.2617-1.3986zm-139.32-5.9873c1.2917-0.65899 4.5003-3.4314 7.1302-6.161 4.7778-4.9588 6.7187-6.1166 9.3957-5.6048 1.6779 0.32076 4.0264 2.7742 4.3885 4.5847 0.2227 1.1135 0.71794 1.5724 1.9664 1.8221 2.863 0.57261 4.2928 0.39726 4.2928-0.52647 0-5.1259-4.3091-10.626-9.2542-11.813-2.3942-0.57435-3.313-0.5434-5.8614 0.19742-2.6176 0.76094-3.6753 1.5502-7.9021 5.8965-7.0088 7.207-9.5999 8.2879-14.352 5.9874-4.5904-2.2222-6.3571-8.3148-3.6786-12.686l1.1728-1.914-1.8708-2.1494c-1.6556-1.9022-1.9777-2.061-2.7996-1.3811-3.3321 2.7565-4.5969 11.58-2.3669 16.513 1.8137 4.0114 5.1232 6.9708 9.3443 8.3558 2.3394 0.76757 7.8602 0.17232 10.395-1.1208zm93.335-16.438-0.14609-16.937-3.8518-2.2597c-2.1185-1.2428-5.551-3.9644-7.6278-6.048l-3.776-3.7883 0.17003 15.665c0.16443 15.15 0.21269 15.751 1.4651 18.271 0.71228 1.433 2.2754 3.7192 3.4736 5.0804 2.1994 2.4986 8.4369 6.9535 9.736 6.9535 0.55711 0 0.67279-3.5174 0.55704-16.937zm65.79 14.693c3.9623-2.6459 7.2666-6.2389 9.0303-9.8192 1.2187-2.4738 1.2755-3.1948 1.4388-18.241l0.17004-15.665-3.7651 3.7883c-2.0708 2.0836-5.4412 4.7533-7.4897 5.9327l-3.7246 2.1444v17.052c0 9.538 0.21569 17.052 0.48948 17.052 0.26921 0 2.002-1.01 3.8507-2.2445zm72.964-7.3865 2.9647-3.0019-13.075-13.925-6.35 6.2837 6.4527 6.8222c3.549 3.7522 6.5855 6.8223 6.7478 6.8224s1.6292-1.3506 3.2597-3.0017zm-215.06-28.42c11.81-11.053 21.472-20.409 21.472-20.791 0-0.98678-17.405-19.113-17.999-18.746-0.27036 0.16709-9.3331 10.373-20.139 22.68l-19.648 22.377 7.0724 7.3923c3.8898 4.0658 7.2292 7.3456 7.4208 7.2885 0.19161-0.0571 10.011-9.1473 21.821-20.2zm225.84 17.646 2.6857-2.7267-6.5172-6.9408c-3.5845-3.8174-6.6582-6.9408-6.8307-6.9408-0.54261 0-5.5995 5.1806-5.5995 5.7365 0 0.69439 12.257 13.454 13.003 13.536 0.31525 0.0346 1.7817-1.1641 3.2588-2.6637zm11.368-13.246c-0.26758-0.4819-3.235-3.6039-6.5944-6.9378l-6.1078-6.0616-2.7679 2.7262c-1.5223 1.4994-2.7679 2.9429-2.7679 3.2078s2.9063 3.4504 6.4585 7.0792l6.4585 6.5976 2.9037-2.8676c2.1991-2.1718 2.7856-3.0802 2.4172-3.7438zm-114.27 1.0773c18.412-3.8892 30.449-14.127 29.595-25.172-0.14692-1.8989-0.79043-4.3751-1.497-5.76-1.4656-2.8729-6.0321-7.844-8.7467-9.5217l-1.9246-1.1895-2.1118 2.4432c-2.4537 2.8387-2.5227 3.0774-1.0267 3.5522 0.61497 0.19519 2.5877 1.7155 4.3839 3.3784 6.1697 5.712 6.3482 9.991 0.65441 15.685-6.8171 6.8171-20.371 11.04-35.435 11.04-11.131 0-22.442-2.5694-29.82-6.7736-4.2102-2.3992-8.6076-6.8983-9.342-9.5581-2.0975-7.5966 7.9096-15.682 23.828-19.252l5.5459-1.2438 1.2941-3.5453c0.71176-1.9499 1.2982-3.5918 1.3033-3.6487 0.0157-0.17658-3.9392 0.42944-8.4408 1.2934-13.298 2.5522-24.553 9.3768-28.407 17.225-1.9896 4.0515-2.123 9.5141-0.32827 13.447 4.1098 9.0055 17.568 16.342 34.206 18.649 5.959 0.8259 20.061 0.26336 26.269-1.0479zm139.36-30.097c12.025-12.441 21.864-22.763 21.864-22.939 0-0.17561-2.0018-2.3022-4.4485-4.7258l-4.4485-4.4065-7.5668 7.7474c-4.1618 4.2611-14.26 14.653-22.441 23.093l-14.874 15.345 4.3779 4.4043c2.4079 2.4224 4.6694 4.3361 5.0255 4.2526 0.35618-0.0834 10.486-10.33 22.511-22.771zm-148.24 16.861c3.3082-3.3082 1.2059-8.2717-3.5203-8.3113-2.8736-0.0241-4.8151 1.9175-4.7911 4.7911 0.0397 4.7348 4.9971 6.8345 8.3113 3.5203zm-15.649-5.8946c3.8521-4.3111-1.4103-10.515-6.3229-7.454-3.2583 2.0301-2.9542 7.0929 0.51825 8.6262 2.269 1.0019 4.2128 0.60937 5.8047-1.1723zm29.432-12.741c6.3477-6.5572 22.221-24.784 22.7-26.066 0.8125-2.1733-2.035-5.1415-4.1528-4.3288-1.4837 0.56935-21.94 24.482-27.34 31.96l-5.2139 7.2196 1.3127 0.99017c1.3024 0.9824 1.3367 0.96927 4.3717-1.6736 1.6824-1.4651 5.4277-5.1106 8.3227-8.1012zm-95.033 3.5833c3.0211-1.2939 6.0678-3.3087 6.0729-4.016 2e-3 -0.28576-2.2976-2.896-5.1105-5.8005-2.8128-2.9045-9.4339-9.7301-14.714-15.168l-9.5993-9.8872-1.0191 1.3245c-1.6159 2.1002-3.301 5.9763-3.9563 9.1007l-0.6037 2.8781 11.261 11.607c11.105 11.446 11.289 11.603 13.222 11.317 1.0782-0.15987 3.0791-0.76978 4.4463-1.3554zm70.623-7.9159c3.8314-7.057 16.66-36.378 16.66-38.078 0-1.2952-2.0299-3.0775-3.5052-3.0775-0.7125 0-1.679 0.43504-2.1478 0.96675-2.3912 2.7122-18.101 42.899-18.101 46.304 0 0.74902 2.3391 1.9177 2.8406 1.4192 0.19505-0.19391 2.1092-3.5843 4.2536-7.5341zm-59.45-2.1728c3.7727-7.3785 3.289-16.244-1.2611-23.113-6.0439-9.1247-18.989-11.8-28.273-5.8423l-2.6533 1.7026 2.3361 2.5595c1.2848 1.4077 7.9264 8.3291 14.759 15.381 13.55 13.985 12.906 13.588 15.092 9.3127zm82.139-5.3598c1.7992-2.0572 2.2508-2.9027 1.7241-3.2282-0.7393-0.45691-7.7822-1.8837-12.228-2.4774l-2.5424-0.33946-1.4626 3.3726c-0.80446 1.8549-1.4626 3.4805-1.4626 3.6124s1.1808 0.26664 2.624 0.29943c1.4432 0.0328 4.2399 0.37 6.2148 0.74935 1.9749 0.37934 3.8394 0.7142 4.1432 0.74414 0.30383 0.0299 1.6494-1.1998 2.9901-2.7328zm168.63-11.892c1.1267-1.1002 2.3346-2.773 2.6843-3.7174 1.8343-4.9539 3.209-7.2767 5.4952-9.2847 3.1002-2.723 3.8373-4.004 3.8623-6.712 0.0254-2.7534-1.3504-5.6042-3.4136-7.0733-2.0812-1.4819-5.8754-1.9437-7.7606-0.94457-0.78116 0.41403-5.4705 4.9468-10.421 10.073l-9.0004 9.3201 4.8179 4.6582c7.1348 6.8982 9.7287 7.5933 13.736 3.6807zm-16.449-14.488c1.8203-1.8642 2.0153-2.3027 1.4737-3.3146-0.34326-0.64139-1.0386-1.1662-1.5451-1.1662-0.99343 0-4.5644 3.1841-4.5644 4.07 0 0.62011 1.6542 2.5592 2.1832 2.5592 0.19508 0 1.2987-0.96678 2.4526-2.1484zm6.6712-6.7435 2.0442-2.2628-2.513-2.6749-2.1046 2.055c-2.3686 2.3129-2.4822 2.7076-1.1903 4.1351 1.253 1.3846 1.4362 1.3236 3.7636-1.2525zm8.028-9.0885c0-0.34701-0.5188-1.1004-1.1529-1.6743-1.142-1.0335-1.1738-1.0209-3.3726 1.3362l-2.2196 2.3796 1.268 1.3497 1.268 1.3497 2.1046-2.055c1.1575-1.1303 2.1046-2.339 2.1046-2.686zm58.689-156.81c18.48-16.156 28.131-35.605 30.45-61.367l0.2487-2.7621-4.2286-3.3885c-16.799-13.462-37.047-21.838-58.031-24.008-8.6439-0.89358-25.592-0.33257-33.41 1.1059-3.3032 0.60776-6.0993 1.1985-6.2136 1.3128-0.11431 0.1143 1.2523 3.5436 3.0369 7.6207l3.2447 7.4129 3.7975 0.70595c12.313 2.2889 18.955 4.8878 25.895 10.132 4.3669 3.3 16.853 15.361 16.851 16.277-9.5e-4 0.32917-0.8413 1.5697-1.8674 2.7568l-1.8657 2.1583-5.5397-5.3172c-10.233-9.8218-15.446-13.584-22.502-16.24-4.2845-1.6127-11.202-3.1773-12.257-2.7723-2.0842 0.79977 0.7608 7.9111 6.1952 15.485 1.6412 2.2875 2.6694 4.159 2.285 4.159-0.38443 0-1.1645 0.34039-1.7334 0.75643-0.96331 0.70439-0.81723 0.90068 2.1235 2.8532 1.7369 1.1532 2.9628 2.2625 2.7243 2.465-0.23855 0.20251-1.4902 0.66869-2.7815 1.0359-1.2913 0.36725-2.3478 0.94964-2.3478 1.2942 0 0.82824 11.97 12.465 19.551 19.007 9.865 8.5127 29.785 23.412 31.302 23.412 0.21441 0 2.4978-1.8429 5.0741-4.0953zm-99.661-68.053c4.7503-5.3297 7.7916-13.24 7.8167-20.332 9e-3 -2.6686-0.0606-2.7794-4.5479-7.1897-7.5308-7.4016-14.711-10.395-24.997-10.422-3.0384-0.0081-6.0395 0.15146-6.6693 0.35451-1.5448 0.4981-4.9641 6.381-6.4686 11.129-0.97987 3.0926-1.2137 5.0839-1.1675 9.9437 0.0318 3.3422 0.32398 6.7278 0.64934 7.5235 1.2019 2.9395 16.355 9.456 26.086 11.218 6.393 1.1576 6.2547 1.1907 9.2989-2.2249zm-46.609-12.482c1.3215-3.3027 1.6466-7.08 0.87687-10.189-0.552-2.2295-1.1666-3.0886-3.6229-5.0642-7.6476-6.1511-18.482-12.228-26.788-15.025-8.5215-2.8698-14.802-3.9372-25.06-4.2589l-9.8686-0.30948 0.25508-2.6547c0.1403-1.4601 0.65473-3.2646 1.1432-4.0101 0.83612-1.2761 1.286-1.3784 7.686-1.7475 18.765-1.0823 37.258 4.1013 53.206 14.915 2.9151 1.9764 5.6241 3.5935 6.0199 3.5935 1.299 0 3.539-2.191 4.1582-4.0671 0.56631-1.7159 0.39945-2.2094-2.472-7.311-6.0879-10.816-14.806-21.757-23.13-29.027-12.995-11.349-26.75-18.441-44.449-22.918-17.564-4.4428-20.41-3.3037-27.412 10.971-4.0948 8.3478-7.3787 17.891-9.1856 26.694-1.0319 5.0275-1.2798 8.3401-1.4706 19.657l-0.22947 13.61 2.3966-0.26869c1.6364-0.18347 3.4478 0.11092 5.7111 0.92817 4.1684 1.5051 6.6866 1.9416 17.678 3.0634 21.021 2.1457 49.405 8.0436 68.777 14.291 2.2788 0.73491 4.3027 1.3608 4.4975 1.391 0.19489 0.0301 0.77171-0.98832 1.2818-2.2632z" fill="#fff" stroke="#6ea3cf" stroke-linecap="round" stroke-linejoin="round" stroke-opacity=".94902" stroke-width="2.8813" style="paint-order:stroke fill markers"/><g transform="matrix(1.1618 0 0 1.1618 -17.122 -14.039)" clip-rule="evenodd" shape-rendering="geometricPrecision"><path d="m103.51 33.816c9.7587 0.48664 17.19 4.8781 22.295 13.174 3.8231 0.11806 7.0321 1.5537 9.6274 4.307 7.6487-1.7461 14.911-0.7327 21.788 3.0402 1.2362 0.6678 3.6693 2.0774 3.7909 2.4802 0.11499 0.1778 0.1901 2.1954 0.20068 2.3335-0.0619 6.7006-3.7605 11.7-8.5519 15.961-0.48035 0.24464-0.98706 0.32911-1.5201 0.25335 2.6597 10.296-0.21181 18.656-8.614 25.082 5.3245 1.0595 10.222 3.0864 14.694 6.0805 3.8783 2.8664 5.1451 6.6667 3.8003 11.401-0.89434 1.5064-2.1611 2.6045-3.8003 3.2936-3.2748 0.34506-6.4838 0.17582-9.6274-0.50671 3.1208 10.21-0.59487 15.446-11.148 15.708-4.0602-0.63642-7.5226-2.4099-10.387-5.3204-1.1137 3.3346-3.2247 5.784-6.3338 7.3472-8.4483 2.9282-14.951 0.64807-19.508-6.8405-5.4204 7.4967-12.261 9.2702-20.522 5.3204-1.4378-1.5216-2.4512-3.2951-3.0402-5.3204-4.9968 2.5492-9.4727 1.8738-13.428-2.0268-2.5796-4.7752-2.2419-9.3356 1.0134-13.681 1.9696-2.3075 4.2497-4.2497 6.8405-5.8271-6.1903-1.9567-11.038-4.7314-14.511-8.2772-1.5262-1.5585-2.7251-0.43586-4.1677-4.9541-0.47589-1.4905 0.32098-4.4814 0.62768-5.5588 0.158-0.55509-2.2283 0.20867-2.3552-0.36472-0.59699-2.697-0.75827-5.6207-0.47808-8.7629 0.22117-2.4803 0.71742-5.0968 1.4916-7.8456 6.1037-12.311 16.375-19.111 30.033-21.495 5.3591-1.0015 10.764-1.4237 16.215-1.2668-0.40384-6.671 1.4537-12.583 5.5738-17.735z" fill="none" image-rendering="optimizeQuality" opacity=".808" stroke="#a0ddff" stroke-width="1.38"/><g transform="matrix(.49812 0 0 .49812 141.17 215.98)" fill="#e2f9fb" fill-rule="evenodd" image-rendering="optimizeQuality"><g transform="translate(-190.69 -380.14)" fill="#e2f9fb"><g fill="#acd6ff"><path d="m113.5 50.5c-1.419-0.9511-3.085-1.2845-5-1v-9c0.663-6.8205 2.829-13.154 6.5-19 1.126-1.4436 2.626-2.1102 4.5-2 15.853 2.2541 27.519 10.421 35 24.5-0.113 1.2798-0.78 2.1131-2 2.5-8.333-6.2333-17.667-8.7333-28-7.5-0.837 1.0113-1.17 2.1779-1 3.5 10.448-0.6837 19.614 2.3163 27.5 9 0.808 2.0787 0.641 4.0787-0.5 6-12.073-3.7688-24.406-6.1022-37-7z" clip-rule="evenodd" fill-rule="evenodd" image-rendering="optimizeQuality" shape-rendering="geometricPrecision"/><path d="m158.5 46.5c6.401-1.0353 11.568 0.9647 15.5 6 0.264 4.1956-1.236 7.6956-4.5 10.5-4.77-0.4572-9.27-1.9572-13.5-4.5-1.112-4.4814-0.279-8.4814 2.5-12z" clip-rule="evenodd" fill-rule="evenodd" image-rendering="optimizeQuality" shape-rendering="geometricPrecision"/><path d="m186.78 52.5c15.104-1.9868 28.23 1.6798 39.381 11-0.52436 11.48-5.5597 20.814-15.105 28-6.5739-4.0887-15.28-10.871-20.574-16.449-3.2887-2.2024 3.8975-0.84736 0.42382-2.7904-3.3651-1.8823 0.0357-1.2792 0.0213-1.6381-1.0113-0.58061-6.4343-8.4244-3.6107-8.0517 6.8056 1.1927 9.4501 3.2902 16.281 10.001 1.1498-0.31942 1.412-1.0877 2.0515-2.1253-7.9768-8.1454-10.49-9.8394-19.914-11.12l-2.7302-6.1148c0.618-0.20491 3.1861-0.48002 3.7748-0.71156z" stroke-width="1.0387"/></g></g></g></g><rect x="37.139" y="89.519" width="26.078" height="16.322" rx="6.6307" ry="7.5115" fill="#fff" stroke="#fff" stroke-linecap="round" stroke-linejoin="round" stroke-width=".34099" style="paint-order:stroke fill markers"/><rect x="142.6" y="87.246" width="30.614" height="21.178" rx="7.7838" ry="9.7461" fill="#fff" stroke="#fff" stroke-linecap="round" stroke-linejoin="round" stroke-width=".42083" style="paint-order:stroke fill markers"/><g fill="#ff7c91"><g transform="matrix(.048331 0 0 .048331 62.043 110.01)">
	<path class="st0" d="m225.47 417.43c-14.997-0.018-30.099 5.766-41.536 17.183l-36.285 36.314c-9.032 9.012-20.744 13.46-32.581 13.479-11.838-0.02-23.542-4.467-32.582-13.479-9.02-9.04-13.479-20.754-13.488-32.601 9e-3 -11.827 4.468-23.541 13.488-32.581l-19.493-19.493c-14.357 14.348-21.584 33.278-21.574 52.074-0.02 18.806 7.217 37.737 21.574 52.094 14.348 14.339 33.268 21.576 52.075 21.576 18.806 0 37.736-7.237 52.084-21.575l36.285-36.304c6.12-6.101 14.014-9.098 22.033-9.126 8.019 0.028 15.913 3.025 22.023 9.135 6.464 6.464 9.451 14.921 9.108 23.388l27.55 1.194c0.707-15.828-5.06-32-17.145-44.075-11.437-11.436-26.559-17.221-41.536-17.203z"/>
	<path class="st0" d="m439.55 31.022c-39.12-39.12-101.22-41.23-142.86-6.396l149.26 149.26c34.844-41.64 32.733-103.75-6.396-142.87z"/>
	<path class="st0" d="m256.48 100.94 113.17 113.16c22.701-1.584 44.982-10.462 63.063-26.614l-149.61-149.62c-16.161 18.072-25.029 40.353-26.624 63.072z"/>
	<path class="st0" d="m51.637 347.47 71.472 71.472 222.49-201.58-92.379-92.388zm223.09-136.99-29.25 29.26-14.625-14.644 29.25-29.23z"/>
</g><g transform="matrix(.037799 .019964 -.019249 .036717 62.928 14.119)">
	<path class="st0" d="m1302.8 112.06-329.8 215.05c-27.358 17.857-35.063 54.474-17.241 81.836l187.28 287.21c17.85 27.345 54.463 35.061 81.834 17.223l329.8-215.05c27.362-17.851 35.068-54.467 17.245-81.829l-187.28-287.21c-17.849-27.344-54.464-35.062-81.838-17.23zm15.898 59.939c8.2978-5.4107 19.42-3.0683 24.83 5.2295s3.0683 19.42-5.2295 24.831-19.42 3.0675-24.83-5.2295c-5.4107-8.2978-3.0692-19.419 5.2295-24.831zm-71.81 46.825c8.2978-5.4107 19.42-3.0683 24.83 5.2295s3.0683 19.42-5.2295 24.831-19.42 3.0675-24.83-5.2295c-5.4107-8.2978-3.0683-19.42 5.2295-24.831zm16.796 438.79-52.748 34.395c-7.8153 5.0961-16.824 6.5077-25.287 4.7368-8.4578-1.7935-16.132-6.7172-21.224-14.527l-134.06-205.59 57.981-37.807 69.339 106.34c4.2577 6.5295 13.018 8.386 19.554 4.124l11.09-7.2312zm105.47-68.774-92.111 60.062-75.35-115.56 12.434-8.1078c6.5362-4.262 8.3706-13.027 4.113-19.556l-69.34-106.34 44.921-29.291 69.339 106.34c4.2577 6.5295 13.017 8.3866 19.553 4.1246l11.09-7.2317 75.35 115.56zm105.47-68.774-92.111 60.062-75.35-115.56 12.44-8.1117c6.5295-4.2577 8.3639-13.023 4.1063-19.552l-69.34-106.34 44.927-29.295 69.339 106.34c4.2576 6.5295 13.018 8.386 19.547 4.1284l11.09-7.2317zm75.91-89.615c5.0917 7.8086 6.5025 16.818 4.7325 25.28-1.7936 8.4577-6.7172 16.132-14.533 21.229l-52.748 34.395-75.35-115.56 12.446-8.1155c6.537-4.2626 8.3706-13.027 4.1129-19.556l-69.34-106.34 56.624-36.922 134.06 205.59z" fill="#ff7c91"/>
</g><g transform="matrix(.062805 0 0 .062805 117.01 105.81)"><g fill="#ff7c91">
	<path class="st0" d="m497.73 25.247c-11.723-11.727-29.506-12.939-39.721-2.728l-38.217 38.213c-10.211 10.212-29.59 29.597-29.59 29.597s9.837 9.829 22.641 22.641c26.885 26.885 41.002 21.739 57.32-3.718 9.251-34.144 20.08-34.08 30.296-44.292 10.211-10.211 8.994-27.993-2.729-39.713z"/>
	<path class="st0" d="m435.57 22.814c1.06 1.061 2.764 1.061 3.821 0l13.032-13.036c1.061-1.061 1.061-2.768 0-3.822l-5.161-5.161c-1.057-1.061-2.764-1.061-3.822 0l-13.036 13.027c-1.057 1.053-1.057 2.769 4e-3 3.822z"/>
	<path class="st0" d="m410.25 48.127c1.057 1.07 2.765 1.07 3.818 0.016l13.04-13.036c1.053-1.061 1.053-2.776 0-3.83l-5.165-5.161c-1.057-1.061-2.769-1.061-3.822 0l-13.04 13.036c-1.053 1.045-1.053 2.76 8e-3 3.822z"/>
	<path class="st0" d="m384.93 73.457c1.057 1.061 2.764 1.061 3.818 8e-3l13.036-13.036c1.057-1.053 1.057-2.768 0-3.83l-5.166-5.17c-1.053-1.053-2.764-1.053-3.821 0l-13.036 13.037c-1.053 1.061-1.053 2.777 4e-3 3.83z"/>
	<polygon class="st0" points="214.59 353.67 235.98 332.28 185.05 281.35 163.66 302.74"/>
	<polygon class="st0" points="177.98 390.28 199.37 368.9 148.44 317.96 127.04 339.35"/>
	<polygon class="st0" points="107.94 358.45 85.303 381.09 136.24 432.03 158.87 409.39"/>
	<path class="st0" d="m372.87 262.84c-7.08 0.16-14.288 2.466-20.83 6.718-9.968 6.43-19.829 7.986-30.016 6-6.697-1.332-13.522-4.548-20.132-9.19l-12.964 12.956c9.071 6.909 19.047 11.775 29.558 13.897 14.392 2.952 29.777 0.367 43.395-8.584 3.877-2.537 8.045-3.733 11.332-3.782 3.354-0.064 5.48 0.934 6.538 2.026 0.854 0.902 1.568 2.01 1.735 4.787 0.132 2.712-0.627 7.068-3.332 12.86-2.452 5.265-5.344 9.222-8.627 12.509-3.718 3.717-8.006 6.605-12.876 9.158-7.284 3.821-15.836 6.749-24.699 10.499-8.831 3.765-18.106 8.472-26.087 16.434-8.309 8.265-14.731 19.929-17.874 35.836-7.619 38.07-21.636 65.961-39.486 83.782-10.399 10.387-22.078 17.464-34.966 21.46-12.88 3.973-27.052 4.882-42.454 2.425-19.972-3.174-37.854-12.014-52.705-22.122-14.858-10.092-26.569-21.356-34.316-29.111-1.651-1.643-3.119-3.127-4.42-4.435-1.292-1.285-2.78-2.76-4.424-4.404-7.754-7.754-19.019-19.466-29.114-34.32-10.096-14.854-18.939-32.74-22.122-52.7-2.453-15.461-1.564-29.757 2.445-42.777 4.021-13.019 11.144-24.834 21.595-35.293 17.806-17.838 45.569-31.703 83.522-38.812 13.81-2.592 25.106-6.23 34.516-10.761 9.406-4.531 16.893-10.004 22.9-16.02 11.3-11.328 17.232-24.148 22.876-35.868 5.652-11.807 10.985-22.546 20.311-31.863 1.049-1.053 2.17-2.106 3.338-3.127 9.226-8.057 18.11-12.366 26.295-14.519 8.181-2.138 15.74-2.107 22.146-1.053 1.815 0.255 4.053 1.388 4.87 2.281l0.543 0.718-0.024 0.542c-0.156 0.559-0.798 1.995-2.868 4.053-1.751 1.764-4.488 3.925-8.405 6.271-4.029 2.425-8.301 5.744-12.541 9.972-5.517 5.512-10.942 12.589-15.162 21.157-6.346 12.812-9.88 29.167-6.534 47.643 0.678 3.765 1.711 7.619 2.964 11.536l14.798-14.799c-1.727-9.645-1.101-18.198 0.906-25.768 3.044-11.384 9.382-20.662 15.764-27.037 3.235-3.246 6.486-5.72 9.071-7.267 4.882-2.928 8.775-5.88 11.875-8.976 2.413-2.409 4.344-4.914 5.756-7.642 2.134-4.029 2.956-8.68 2.134-12.892-0.79-4.228-2.992-7.707-5.545-10.243-4.264-4.181-9.43-6.414-14.691-7.324-8.572-1.404-18.74-1.444-29.621 1.412-10.882 2.848-22.418 8.608-33.582 18.38-1.472 1.292-2.884 2.609-4.224 3.949-11.843 11.855-18.138 25.018-23.814 36.81-5.668 11.87-10.746 22.321-19.37 30.921-4.616 4.611-10.292 8.808-17.994 12.525-7.694 3.726-17.443 6.925-30.008 9.287-40.487 7.594-71.771 22.64-92.937 43.781-12.378 12.364-21.19 26.836-26.072 42.711-4.894 15.884-5.859 33.092-3.015 50.93 3.758 23.439 13.917 43.654 25.014 59.985 11.105 16.338 23.251 28.903 31.276 36.928 1.671 1.676 3.163 3.159 4.42 4.42 1.256 1.245 2.736 2.745 4.412 4.42 8.03 8.01 20.599 20.168 36.929 31.273 16.334 11.104 36.554 21.252 59.992 25.01 17.775 2.848 34.867 1.875 50.619-3.008 15.756-4.866 30.092-13.634 42.378-25.927 21.137-21.173 36.286-52.477 44.404-92.973 2.688-13.187 7.3-20.926 12.956-26.646 3.658-3.654 7.91-6.502 12.756-9.031 7.248-3.797 15.8-6.709 24.691-10.483 8.86-3.789 18.173-8.544 26.211-16.578 4.731-4.715 8.927-10.546 12.222-17.646 3.558-7.659 5.253-14.679 4.99-21.228-0.223-6.502-2.74-12.573-6.984-16.762-5.35-5.321-12.602-7.435-19.618-7.291z"/>
	<polygon class="st0" points="384.55 98.818 210.52 272.84 244.47 306.81 418.5 132.77"/>
</g></g><g transform="matrix(.055959 0 0 .05423 85.356 108.4)">
	<path class="st0" d="m55.542 281.35v118.61c0 32.571 24.824 61.89 64.435 82.394v-148.9c-28.551-13.583-50.881-31.457-64.435-52.107z"/>
	<path class="st0" d="m144.44 493.17c28.181 10.588 61.444 17.252 97.294 18.657v-150.77c-35.679-1.318-68.73-7.542-97.294-17.582z"/>
	<path class="st0" d="m266.2 512c37.407-1.047 72.109-7.842 101.35-18.819v-149.7c-29.649 10.42-64.12 16.732-101.35 17.721z"/>
	<path class="st0" d="m392.02 333.45v148.88c39.611-20.489 64.435-49.808 64.435-82.379v-118.61c-13.547 20.65-35.881 38.524-64.435 52.107z"/>
	<path class="st0" d="m256.54 251.62c-7.667 8.794-6.744 22.129 2.043 29.788 8.787 7.674 22.133 6.751 29.792-2.036 7.66-8.802 6.744-22.136-2.043-29.803-8.794-7.659-22.132-6.737-29.792 2.051z"/>
	<path class="st0" d="m318.38 195.67-29.368 41.46 9.289 8.091 37.048-34.767c10.838-10.156 21.151-20.855 30.909-32.043l78.641-90.244c4.671-5.36 4.107-13.474-1.245-18.145l-0.952-0.835c-5.352-4.664-13.473-4.1-18.145 1.246l-78.64 90.243c-9.762 11.203-18.948 22.875-27.537 34.994z"/>
	<path class="st0" d="m211.2 221.01c-10.731-4.554-23.136 0.454-27.691 11.189-4.554 10.734 0.458 23.139 11.189 27.693 10.732 4.555 23.128-0.454 27.69-11.188 4.555-10.735-0.45-23.124-11.188-27.694z"/>
	<path class="st0" d="m278.65 134.31c-2.212 5.214-4.57 10.384-6.986 15.539 19.903 0.937 39.322 3.617 57.453 7.872 1.889-2.256 3.782-4.504 5.708-6.715l14.967-17.179c-20.166-5.99-42.361-10.09-65.874-11.928z"/>
	<path class="st0" d="m456.46 232.97c0-29.122-19.844-55.652-52.363-75.598l-18.468 21.191c0.531 0.278 1.08 0.557 1.6 0.85 28.02 15.677 44.093 35.207 44.093 53.557 0 18.365-16.073 37.887-44.093 53.572-34.017 19.024-81.844 29.95-131.23 29.95-49.376 0-97.207-10.926-131.22-29.95-28.024-15.685-44.1-35.207-44.1-53.572 0-18.35 16.076-37.88 44.1-53.557 23.706-13.268 54.132-22.583 87.109-27.013 3.211-10.098 6.777-20.152 10.695-30.03-94.794 8.912-167.04 55.022-167.04 110.6 0 61.956 89.749 112.18 200.46 112.18 110.72 1e-3 200.46-50.225 200.46-112.18z"/>
	<path class="st0" d="m221.22 213.16 24.447-44.536c7.15-13.034 13.638-26.391 19.438-40.069l46.768-110.18c2.779-6.547-0.271-14.089-6.81-16.864l-1.164-0.49c-6.539-2.775-14.088 0.278-16.86 6.81l-46.769 110.18c-5.808 13.678-10.918 27.627-15.327 41.811l-15.059 48.526z"/>
</g></g><g><text transform="matrix(.26382 0 0 .2646 -74.675 -156.4)" x="251.33324" fill="#f7a8f7" font-size="85.333px" stroke="#6ea3cf" stroke-linecap="round" stroke-linejoin="round" stroke-opacity=".94902" stroke-width="4.0252" text-align="center" style="mix-blend-mode:normal;paint-order:stroke fill markers;shape-inside:url(#rect16);white-space:pre" xml:space="preserve"><tspan x="677.27539" y="873.80684"><tspan font-family="'Hachi Maru Pop'">
</tspan></tspan><tspan x="421.2755" y="988.59077" font-family="'Hachi Maru Pop'"><tspan>セッション</tspan><tspan>会</tspan></tspan></text><text x="102.02498" y="84.321419" fill="#f7a8f7" font-family="つぐみ丸ゴシック-Medium" font-size="22.578px" stroke="#6ca2ce" stroke-linecap="round" stroke-linejoin="round" stroke-width="1.065" text-align="center" text-anchor="middle" style="font-variant-caps:normal;font-variant-east-asian:normal;font-variant-ligatures:normal;font-variant-numeric:normal;paint-order:stroke fill markers" xml:space="preserve"><tspan x="102.02498" y="84.321419" fill="#f7a8f7" font-family="'Hachi Maru Pop'" font-size="22.578px" stroke="#6ca2ce" stroke-width="1.065" style="font-variant-caps:normal;font-variant-east-asian:normal;font-variant-ligatures:normal;font-variant-numeric:normal">水瀬いのり</tspan></text><g transform="matrix(.046481 -.020163 .020163 .046481 116.37 52.612)" fill="#ff7c91"><g fill="#ff7c91">
	<path class="st0" d="m207.33 186.91h16.173c5.212 0 9.433-4.216 9.433-9.428 0-5.213-4.221-9.43-9.433-9.43h-16.173c-5.213 0-9.434 4.217-9.434 9.43 0 5.212 4.221 9.428 9.434 9.428z"/>
	<path class="st0" d="m148.56 186.91h16.173c5.208 0 9.434-4.216 9.434-9.428 0-5.213-4.225-9.43-9.434-9.43h-16.173c-5.213 0-9.437 4.217-9.437 9.43-1e-3 5.212 4.224 9.428 9.437 9.428z"/>
	<path class="st0" d="m268.32 186.91h16.173c5.213 0 9.434-4.216 9.434-9.428 0-5.213-4.221-9.43-9.434-9.43h-16.173c-5.212 0-9.433 4.217-9.433 9.43-1e-3 5.212 4.22 9.428 9.433 9.428z"/>
	<path class="st0" d="m494.83 417.28c-0.017 0-0.03 8e-3 -0.046 0.017l-5.47 2.207z"/>
	<path class="st0" d="m494.23 91.229-0.026-0.017c-3.158-1.178-6.454-1.76-9.719-1.76-7.732 0-15.282 3.271-20.61 9.288-0.632 0.706-24.507 27.216-59.904 53.347-35.426 26.245-82.418 51.827-128.39 51.736h-248.06c-15.198 9e-3 -27.508 12.327-27.516 27.517v46.083c8e-3 15.19 12.318 27.508 27.516 27.508h49.333c-0.307 3.295-0.511 6.598-0.511 9.91 0.03 59.372 48.308 107.66 107.69 107.71h56.5c56.779-0.042 103.28-44.217 107.31-99.978 27.894 13.886 55.774 34.471 77.235 52.342 23.536 19.58 39.414 35.782 39.714 36.082l-0.021-0.017c5.279 5.42 12.434 8.318 19.718 8.318 3.477 0 6.976-0.664 10.301-1.992l0.053-0.026c10.376-4.208 17.162-14.293 17.162-25.49v-274.82c0-11.446-7.084-21.68-17.771-25.739zm-448.1 186.19h-18.617v-46.083h18.618v46.083zm47.794 0h-30.55v-46.083h65.096c-4.677 3.477-8.844 7.221-12.488 11.072-7.487 7.885-12.982 16.095-16.838 23.291-2.336 4.416-4.012 8.3-5.22 11.72zm344.41 72.794c-22.49-18.344-50.973-38.788-80.277-53.131-18.933-11.429-33.812-19.664-35.874-19.664h-157.81c-3.768 1.992-7.329 4.375-10.35 7.396-7.715 7.744-12.422 18.236-12.434 30.022 0.012 11.77 4.719 22.27 12.434 30.014 7.74 7.712 18.24 12.434 30.022 12.434h56.48c11.77 0 22.27-4.722 30.018-12.434 7.707-7.744 12.426-18.243 12.434-30.014-8e-3 -7.454-2.063-14.294-5.4-20.344h40.369c1.739 6.508 2.768 13.289 2.768 20.344-0.021 44.29-35.903 80.165-80.19 80.19h-56.48c-44.299-0.025-80.182-35.9-80.194-80.19 0-9.811 1.831-19.207 5.076-27.89l0.095 0.017v-0.017l0.316-1.162c1.117-2.872 2.378-5.677 3.81-8.367h-0.556c0.535-1.162 1.103-2.34 1.78-3.569 4.802-9.031 12.874-20.169 24.66-28.869 8.504-6.258 18.93-11.264 31.753-13.645h104.79c62.742 0 123.16-38.713 162.75-71.101zm-176.92-35.359c-8e-3 7.106-3.358 11.969-6.159 14.792-2.739 2.731-7.603 6.076-14.75 6.076h-56.439c-7.15 0-12.014-3.345-14.828-6.142-2.735-2.756-6.072-7.604-6.084-14.758 0.012-7.122 3.337-11.969 6.138-14.774l1.211-1.062h83.552l1.262 1.112c2.752 2.753 6.089 7.6 6.097 14.756zm223.07 76.927s-11.202-11.454-28.902-26.976v-219.36c18.152-16.352 28.902-28.479 28.902-28.479z"/>
</g></g></g></g><style type="text/css">
	.st0{fill:#4B4B4B;}
</style><style type="text/css">
	.st0{fill:#4B4B4B;}
</style><style type="text/css">
	.st0{fill:#4B4B4B;}
</style><style type="text/css">
	.st0{fill:#4B4B4B;}
</style><style type="text/css">
	.st0{fill:#4B4B4B;}
</style></svg>
